<svg width="1920" height="1080" viewBox="0 0 1920 1080" xmlns="http://www.w3.org/2000/svg"><rect width="1920" height="1080" fill="#ffffff"/><path d="M 0,1080 C 0,1080 0,180 0,180 C 134.72820512820513,174.57179487179485 269.45641025641027,169.14358974358973 376,160 C 482.54358974358973,150.85641025641027 560.902564102564,137.9974358974359 652,150 C 743.097435897436,162.0025641025641 846.9333333333334,198.86666666666667 960,211 C 1073.0666666666666,223.13333333333333 1195.3641025641025,210.53589743589745 1309,203 C 1422.6358974358975,195.46410256410255 1527.6102564102564,192.9897435897436 1628,190 C 1728.3897435897436,187.0102564102564 1824.1948717948717,183.5051282051282 1920,180 C 1920,180 1920,1080 1920,1080 Z" fill="#0040ff" opacity="0.09999999999999999"/><path d="M 0,1080 C 0,1080 0,360 0,360 C 99.56666666666666,369.71794871794873 199.13333333333333,379.43589743589746 308,390 C 416.8666666666667,400.56410256410254 535.0333333333332,411.97435897435895 632,388 C 728.9666666666668,364.02564102564105 804.7333333333333,304.6666666666667 905,297 C 1005.2666666666667,289.3333333333333 1130.0333333333333,333.3589743589743 1261,339 C 1391.9666666666667,344.6410256410257 1529.1333333333334,311.8974358974359 1640,309 C 1750.8666666666666,306.1025641025641 1835.4333333333334,333.05128205128204 1920,360 C 1920,360 1920,1080 1920,1080 Z" fill="#0040ff" opacity="0.19999999999999998"/><path d="M 0,1080 C 0,1080 0,540 0,540 C 115.59230769230768,502.97948717948714 231.18461538461537,465.95897435897433 333,479 C 434.81538461538463,492.04102564102567 522.8538461538462,555.1435897435898 638,553 C 753.1461538461538,550.8564102564102 895.3999999999999,483.4666666666667 999,492 C 1102.6000000000001,500.5333333333333 1167.5461538461539,584.9897435897436 1276,595 C 1384.4538461538461,605.0102564102564 1536.4153846153845,540.574358974359 1651,519 C 1765.5846153846155,497.425641025641 1842.7923076923078,518.7128205128205 1920,540 C 1920,540 1920,1080 1920,1080 Z" fill="#0040ff" opacity="0.3"/><path d="M 0,1080 C 0,1080 0,720 0,720 C 100.14358974358976,744.0153846153846 200.28717948717951,768.0307692307694 326,761 C 451.7128205128205,753.9692307692306 602.9948717948716,715.8923076923077 696,717 C 789.0051282051284,718.1076923076923 823.7333333333333,758.4000000000001 914,747 C 1004.2666666666667,735.5999999999999 1150.0717948717947,672.5076923076923 1269,670 C 1387.9282051282053,667.4923076923077 1479.9794871794873,725.5692307692308 1584,744 C 1688.0205128205127,762.4307692307692 1804.0102564102563,741.2153846153847 1920,720 C 1920,720 1920,1080 1920,1080 Z" fill="#0040ff" opacity="0.39999999999999997"/><path d="M 0,1080 C 0,1080 0,900 0,900 C 136.04615384615383,918.5051282051281 272.09230769230766,937.0102564102564 358,929 C 443.90769230769234,920.9897435897436 479.67692307692323,886.4641025641026 582,879 C 684.3230769230768,871.5358974358974 853.2,891.1333333333333 975,889 C 1096.8,886.8666666666667 1171.523076923077,863.0025641025642 1268,873 C 1364.476923076923,882.9974358974358 1482.7076923076922,926.8564102564103 1595,937 C 1707.2923076923078,947.1435897435897 1813.646153846154,923.5717948717949 1920,900 C 1920,900 1920,1080 1920,1080 Z" fill="#0040ff" opacity="0.49999999999999994"/></svg>