<svg id="visual" viewBox="0 0 900 600" width="900" height="600" xmlns="http://www.w3.org/2000/svg" xmlns:xlink="http://www.w3.org/1999/xlink" version="1.1"><rect x="0" y="0" width="900" height="600" fill="#ffffff"></rect><path d="M0 470L50 460.3C100 450.7 200 431.3 300 431.7C400 432 500 452 600 460.8C700 469.7 800 467.3 850 466.2L900 465L900 0L850 0C800 0 700 0 600 0C500 0 400 0 300 0C200 0 100 0 50 0L0 0Z" fill="#4b97ff"></path><path d="M0 414L50 399.5C100 385 200 356 300 354.5C400 353 500 379 600 384.8C700 390.7 800 376.3 850 369.2L900 362L900 0L850 0C800 0 700 0 600 0C500 0 400 0 300 0C200 0 100 0 50 0L0 0Z" fill="#3d83ec"></path><path d="M0 296L50 297.8C100 299.7 200 303.3 300 299.2C400 295 500 283 600 278.7C700 274.3 800 277.7 850 279.3L900 281L900 0L850 0C800 0 700 0 600 0C500 0 400 0 300 0C200 0 100 0 50 0L0 0Z" fill="#306fd9"></path><path d="M0 200L50 201.7C100 203.3 200 206.7 300 207.3C400 208 500 206 600 206C700 206 800 208 850 209L900 210L900 0L850 0C800 0 700 0 600 0C500 0 400 0 300 0C200 0 100 0 50 0L0 0Z" fill="#225bc5"></path><path d="M0 160L50 157C100 154 200 148 300 142.3C400 136.7 500 131.3 600 130.5C700 129.7 800 133.3 850 135.2L900 137L900 0L850 0C800 0 700 0 600 0C500 0 400 0 300 0C200 0 100 0 50 0L0 0Z" fill="#1348b2"></path><path d="M0 103L50 95.8C100 88.7 200 74.3 300 70.5C400 66.7 500 73.3 600 76.2C700 79 800 78 850 77.5L900 77L900 0L850 0C800 0 700 0 600 0C500 0 400 0 300 0C200 0 100 0 50 0L0 0Z" fill="#00359e"></path></svg>